<?xml version="1.0" encoding="UTF-8"?>
<svg id="_x2DC_àð_x5F_1" xmlns="http://www.w3.org/2000/svg" version="1.1" viewBox="0 0 310 368">
  <!-- Generator: Adobe Illustrator 30.2.1, SVG Export Plug-In . SVG Version: 2.1.1 Build 1)  -->
  <defs>
    <style>
      .st0 {
        fill: #eb6132;
      }

      .st1 {
        isolation: isolate;
      }

      .st2 {
        fill: #ed6d23;
      }

      .st3 {
        fill: #134671;
      }
    </style>
  </defs>
  <g>
    <g>
      <path class="st3" d="M35.42,87.92l19.16,31.17c-6.63-5.26-19-15.89-19.96-24.86M39.01,89.07c-1.03,3.11,3.01,6.58,5.11,7.18,8.13,2.16,16.61,1.43,24.91,1.17,12.13-.75,24.23-2.02,36.32-3.22,20.07-1.77,40.15-3.61,60.3-4.43,1.97.1,3.93-.18,5.9-.32,6.03.23,12.07-.14,18.1.12,19.75-.13,39.88,2.25,58.22,9.94,14.78,6.22,28.05,16.49,36.78,30.04,6.84,10.45,10.59,22.79,11.32,35.22.28,13.23-2.15,26.74-8.49,38.46-5.7,11.76-14.92,21.64-25.74,28.87-9.1,5.81-19.2,10.3-29.87,12.17-7.6,6.74-15.48,13.3-24.26,18.46-5.65,3.15-11.84,6.08-18.47,5.82-4.2-.4-8.53-2.2-11.07-5.69-2.87-3.92-3.55-9.48-1.24-13.82.95-2.09,2.57-3.75,4.38-5.09-4.96-.25-10.46-1.8-13.31-6.19-4.05-5.47-2.56-13.82,2.81-17.86,6.39-5.04,15.04-4.59,22.72-4.55,8.86.71,18.04,1.18,26.65-1.45,6.39-1.86,11.59-6.56,15.14-12.08,4.24-6.64,6.45-14.87,4.88-22.69-1.28-7.06-5.48-13.47-11.28-17.66-7.31-4.96-16.39-6.78-25.11-6.23-3.53,2.92-7.59,5.12-11.09,8.09-5.25,3.97-10.13,8.57-13.66,14.18-2.58,4.04-4.76,8.35-6.31,12.91-1.01,2.35-4.89,1.44-4.71-1.13,3.22-8.72,7.8-17.16,14.8-23.42,4.07-4.09,8.61-7.69,13.4-10.89-4.65.23-9.31.05-13.96.31-6.49,3.36-12.42,7.69-17.87,12.55-6.16,5.63-10.94,12.7-14.14,20.39-.56,1.19-.54,2.9-1.93,3.48-1.56.85-3.72-.55-3.33-2.35,3.86-12.12,12.08-22.62,22.36-29.99,1.94-1.55,3.99-2.94,6.09-4.28-4.7.19-9.42.06-14.12,0-8.03,4.61-16.05,9.63-22.26,16.6-4.77,5.12-8.01,11.49-10.19,18.1-.26.98-1.22,1.77-2.24,1.77-1.58.25-2.95-1.65-2.29-3.09,2.24-6.72,5.41-13.22,10.01-18.64,5.34-6.14,11.87-11.14,18.89-15.2-4.42-.22-8.82-.78-13.19-1.46-1.43-.16-2.95-.23-4.28.4-8.39,3.46-16.8,7.63-23.08,14.36-3.98,3.96-6.96,8.92-8.66,14.28-.44,1.86-3.36,2.15-4.19.44-.72-1.47.16-3.06.62-4.48,5.12-12.82,16.79-21.92,29.29-26.99-11.42-2.33-22.62-5.7-33.44-9.99-6.91-2.9-13.84-5.81-20.32-9.6-4.7-2.43-9.11-5.38-13.68-8.04-13.92-9.46-18.19-22.64-23.03-23.4M85.55,100.75c-7.27.57-14.53,1.31-21.82,1.5-7.28.15-14.71.27-21.74-1.89,1.92,2.54,4.06,4.87,6.26,7.16,13.86,13.53,31.26,22.87,49.15,29.97,10.69,4.26,21.84,7.2,33.06,9.67,6.33,1.32,12.76,2.07,19.18,2.78,6.9.83,13.87.58,20.81.67,4.97-.02,9.94,0,14.9-.13,1.11-1.1,2.27-2.13,3.43-3.18,5.89-5.34,10.06-12.56,11.56-20.39,1.87-8.14.97-16.73-1.73-24.57-1.28-2.74-2.45-5.55-3.98-8.18-36.49-.88-72.81,3.38-109.08,6.6h.01ZM200.11,94.28c1.07,2.22,2.22,4.41,2.95,6.78h.2c1.53,5.65,2.91,11.4,2.68,17.28.12,8.43-2.51,16.72-6.66,23.98-1.94,3.06-4.32,5.76-6.95,8.25,1.25-.06,2.51-.12,3.77-.14,4.09.1,8.19-.03,12.28.02,4.54.19,9.03,1.12,13.39,2.39,3.06-1.72,5.7-4.03,8.34-6.31,5.67-5.16,9.71-12.09,11.37-19.58,1.37-5.25.93-10.73.36-16.06l-.14-.06c-.76-3.37-1.94-6.63-3.29-9.81-12.37-4.05-25.34-5.98-38.3-6.73h.01ZM244.07,102.82c1.4,3.24,2.36,6.65,2.76,10.15.69,7.6-.27,15.37-3.24,22.42-1.5,4-4.14,7.41-6.5,10.9-2.95,3.37-6.28,6.42-10.1,8.78,1.14.62,2.35,1.16,3.41,1.92,2.44,1.63,4.9,3.34,6.73,5.67,6.73.03,13.51-1.04,19.71-3.76,8.65-3.63,16.22-10.24,20.3-18.76,1.32-2.79,2.27-5.73,3.52-8.55-3.96-5.27-8.3-10.31-13.33-14.62-6.89-6.01-14.97-10.45-23.26-14.19v.02h0ZM279.72,145.33c-4.17,6.95-10.31,12.79-17.65,16.3v.24c-6.89,3.13-14.35,4.94-21.9,5.2.82,1.21,1.58,2.45,2.23,3.77,1.46,3.16,1.87,6.66,2.7,9.99,6.53,4.14,14.23,6.46,21.98,6.52,6.36-.24,12.7-1.77,18.3-4.83,1.61-1.07,3.29-2.02,4.91-3.09,1.56-8.31,1.4-16.97-.42-25.24-1.31-5.93-3.76-11.52-6.15-17.07-1.18,2.81-2.21,5.72-3.99,8.23h0ZM245.04,186.16c-.09,1.52-.11,3.05-.39,4.54l.12.45c-.75,2.93-1.51,5.88-2.78,8.63.58.9,1.14,1.83,1.74,2.73l-.06.23c2.34,3.1,5.01,5.96,8.3,8.07,5.81,3.39,12.5,5.61,19.3,5.11h1.7c7.78-8.44,13.24-18.93,16.09-30.03-1.77,1.01-3.58,1.91-5.47,2.67-5.91,2.22-12.21,3.38-18.51,3.34-7-.57-13.69-2.85-20.04-5.74h0ZM227.52,215.92c1.02.99,1.88,2.13,2.73,3.27,3.91,5.75,5.11,13.16,3.57,19.91,9.31-2.23,18.12-6.28,26.1-11.53.52-.43,1.38-.57,1.54-1.33,2.54-1.58,4.88-3.49,7.07-5.51-5.35-.29-10.71-1.61-15.4-4.23-5.72-2.63-10.53-7.09-13.92-12.35-2.93,4.74-6.96,8.83-11.71,11.75h.01ZM211.08,220.21c-8.75,1.03-17.49-.75-26.25-.18-3.9.25-8.08.85-11.15,3.47-1.87,1.37-2.9,3.54-3.39,5.74.06,1.61-.09,3.36.82,4.8,1.55,3.2,5.18,4.67,8.51,5.12,8.02.83,15.79-1.99,23.41-4.08,1.49-.46,3.27,1.27,2.66,2.78-.46,1.29-2,1.55-3,2.28-4.73,1.31-9.42,2.88-13.92,4.87-2.17,1.05-4.46,2.12-5.98,4.06-1.93,2.11-3.28,5.26-2.25,8.09.4,2.21,2.12,3.93,3.95,5.09,4.21,2.27,9.27,1.74,13.56,0,10.94-4.82,20.54-12.25,29.25-20.34.53-.62,1.4-1.08,1.54-1.93.71-3.67,1.27-7.49.52-11.19-.91-4.18-3.48-7.72-6.16-10.96-3.95,1.18-8.02,1.99-12.12,2.4h.01Z"/>
      <path class="st3" d="M115.42,107.62c4.5-2.71,11.03.62,11.7,5.77.65,2.67-.44,5.47-2.25,7.44-2.03,1.27-4.46,2.33-6.91,1.81-1.84-.24-3.38-1.31-4.8-2.42-3.18-3.77-2.17-10.27,2.26-12.6h0Z"/>
    </g>
    <g>
      <path class="st0" d="M135.56,101.63c17.93-1.52,35.95-1.6,53.94-1.37,3.04.11,6.3.13,8.9,1.92,2.69,7.85,3.61,16.45,1.73,24.57-1.5,7.83-5.67,15.05-11.56,20.39-1.17,1.03-2.34,2.07-3.43,3.18-4.96.12-9.94.11-14.9.13-6.94-.09-13.91.15-20.81-.67-6.42-.71-12.85-1.45-19.18-2.78-11.22-2.48-22.37-5.4-33.06-9.67-17.88-7.09-35.28-16.44-49.15-29.97,1.04-.19,2.1-.36,3.18-.29,5.16.33,10.33.4,15.5.14,10.98-1.04,21.99-1.84,32.99-2.67,11.95-1.08,23.9-2.13,35.85-2.92,0,0-.01,0-.01,0ZM115.42,107.62c-4.43,2.34-5.44,8.84-2.26,12.6l-.81-.43c-.06,1.94.4,3.97,1.82,5.38,1.19,1.38,3.18,1.39,4.84,1.28,3.27-.12,5.8-3,6.61-6.01l-.75.38c1.81-1.97,2.91-4.77,2.25-7.44-.67-5.15-7.2-8.48-11.7-5.77Z"/>
      <path class="st0" d="M203.06,100.93c3.29.18,6.54.78,9.78,1.39,9.8,1.79,19.55,4.24,28.64,8.35l.14.06c.57,5.33,1.01,10.81-.36,16.06-1.66,7.49-5.69,14.42-11.37,19.58-2.64,2.28-5.29,4.59-8.34,6.31-4.36-1.27-8.85-2.2-13.39-2.39-4.09-.05-8.19.08-12.28-.02.5-2.91,2.02-5.44,3.19-8.09,4.15-7.27,6.78-15.55,6.66-23.98.23-5.88-1.16-11.64-2.68-17.27Z"/>
      <path class="st0" d="M246.63,112.83c9.18,4.94,17.75,11.26,24.41,19.34,2.13,2.49,3.81,5.32,5.89,7.85-4.08,8.51-11.65,15.13-20.3,18.76-6.19,2.71-12.98,3.79-19.71,3.76-1.83-2.34-4.28-4.05-6.73-5.67.29-4.52,5.17-6.71,6.68-10.7,2.36-3.51,5.01-6.9,6.5-10.9,2.97-7.05,3.93-14.83,3.24-22.42h.01Z"/>
      <path class="st0" d="M261.87,161.48c7.33-3.5,13.48-9.34,17.65-16.3,3.36,6.5,5.04,13.78,5.93,21,.71,5.38-.1,10.79-.28,16.17-5.6,3.08-11.94,4.6-18.3,4.83-7.75-.06-15.45-2.39-21.98-6.52-.83-3.33-1.24-6.82-2.7-9.99,7.02-1.17,14.32-3.3,19.63-8.26,0-.18.02-.54.03-.71v-.24h.01Z"/>
      <path class="st0" d="M264.88,191.76c6.31.04,12.62-1.12,18.51-3.34-.25,4.36-2.12,8.39-3.82,12.35-2.23,5.33-5.59,10.06-8.5,15.03-6.8.5-13.49-1.72-19.3-5.11-3.29-2.1-5.97-4.97-8.3-8.07l.06-.23c1.11-3.65,2.49-7.61,1.03-11.37l-.12-.45c3.25.76,6.26,2.37,9.59,2.9,3.06.53,6.24.91,9.29.22.93-.16,1.09-1.26,1.55-1.92h0Z"/>
      <path class="st0" d="M234.49,214.98c1.72-1.77,3.01-3.93,5.04-5.4.9,1.52,1.86,3.05,3.2,4.23,3.88,3.41,8.41,6.25,13.5,7.36,2.52.56,5.17-.04,7.65.74-.8,1.44-1.92,2.7-2.62,4.21-.15.76-1.02.9-1.54,1.33-7.99,5.25-16.79,9.3-26.1,11.53,1.54-6.75.33-14.17-3.57-19.91,1.49-1.36,3.06-2.63,4.45-4.09Z"/>
      <path class="st0" d="M219.71,222.54c1.1-.17,2.66-1.1,3.39.23,1.8,2.48,2.85,5.37,4.17,8.11.28.54.51,1.23,1.15,1.43.76-1.02.57-2.48.74-3.68.75,3.7.19,7.52-.52,11.19-.14.86-1.01,1.31-1.54,1.93-8.72,8.09-18.32,15.52-29.25,20.34-4.29,1.75-9.35,2.28-13.56,0-1.84-1.16-3.55-2.88-3.95-5.09-.02-.9-.04-1.81-.08-2.69,1.11-2.13,3-3.6,4.98-4.85,2.49-1.59,4.03-4.39,6.81-5.55,3.66-1.51,7.56-2.36,11.22-3.85-.19,0-.58-.04-.78-.05,1-.73,2.54-.98,3-2.28.61-1.51-1.17-3.24-2.66-2.78-7.62,2.09-15.38,4.91-23.41,4.08-3.34-.46-6.96-1.93-8.51-5.12-.9-1.43-.74-3.18-.82-4.8,4.09-3.25,9.33-5.12,14.6-4.83,11.68.43,23.63,1.51,35.04-1.72h-.03Z"/>
    </g>
  </g>
  <path class="st3" d="M38.44,101.27c-.7,0-1.39-.34-1.8-.97-3.33-5.06-2.13-10.4-1.55-12.23.04-1.26,1.28-2.09,2.67-3.03,1.94-1.3,5.3-3.33,9.98-6.03,15.52-8.95,15.05-38.05,15.05-38.34v-.29s.07-.29.07-.29c.1-.39,2.54-9.65,10.83-14.21,5.4-2.97,11.91-3.23,19.36-.79,20.23,6.62,27.07-.53,27.13-.61.44-.48,10.39-11.21,22.88-8.4,11.23,2.52,20.37,15.07,27.18,37.29.35,1.14-.29,2.34-1.43,2.69-1.14.34-2.34-.29-2.69-1.43-6.23-20.34-14.53-32.22-24-34.35-10.08-2.27-18.64,6.98-18.73,7.07-.29.34-8.41,9.44-31.68,1.82-6.26-2.05-11.61-1.9-15.92.46-5.98,3.27-8.28,9.91-8.69,11.28.01,1.61-.05,8.61-1.8,16.66-2.65,12.19-7.98,20.9-15.4,25.18-7.51,4.33-9.92,5.96-10.67,6.53-.33.99-1.42,4.97,1.02,8.67.65.99.38,2.33-.61,2.98-.36.24-.78.35-1.18.35Z"/>
  <path class="st3" d="M44.2,120.88c-6.55,0-12.16-.74-16.77-2.23-5.39-1.73-7.58-3.95-8.03-4.47-1.23-1.3-19.95-21.44-13.65-34.13,4-8.05,16.22-10.83,37.36-8.48,64.86,7.19,143.6-5.56,144.39-5.69,10.99-1.89,21.09-5.78,21.18-8.16,0-.16-.11-3.9-21.2-9.06-1.16-.28-1.86-1.45-1.58-2.6.28-1.15,1.46-1.86,2.6-1.58,21.93,5.36,24.6,9.97,24.48,13.39-.26,7.48-19.02,11.27-24.77,12.25-.81.13-80.12,12.98-145.58,5.72-18.6-2.06-30.02.05-33.03,6.12-4.18,8.43,7.93,24,12.95,29.29.04.04.07.08.11.12.04.04,7.04,7.57,33.9,4.41,1.19-.14,2.25.71,2.39,1.89.14,1.18-.71,2.25-1.89,2.39-4.62.54-8.92.81-12.87.81Z"/>
  <g class="st1">
    <g class="st1">
      <path class="st2" d="M96.34,296.74l-6.77,43.58,3.49,5.07-.05.28-15.21-.94-.05-.28,5.16-5.17v-7.14l-11.82-3.38.31,10.71,4.06,4.7v.28l-16.2-1.6-.05-.28,4.06-5.35-5.99-42.36-3.59-8.92.05-.28,21.61,2.25v.38l-5.73,5.73,1.25,29.68,12.03-.47v-28.46l-3.49-6.76v-.38l21.4,2.54v.28l-4.48,6.29Z"/>
      <path class="st2" d="M119.63,347.17l-.05-.28,3.02-5.64-1.09-4.88-12.81,2.25-.94,4.98,5.42,4.51v.28l-14.01,2.16-.05-.28,2.29-6.01,14.79-57.29h.89l16.46,51.56,2.86,4.6v.28l-16.77,3.76ZM115.36,308.66l-5.36,23.76,9.63-3.29-4.27-20.47Z"/>
      <path class="st2" d="M179.36,298.61l-15.62,52.97-.83.19-16.09-36.44,1.09,26.11,4.17,5.73v.28l-14.43-1.97-.05-.28,4.06-4.23.52-49.03-6.04-6.86v-.28l15.05,2.35,11.67,51.37,7.19-42.64-5.05-7.04v-.28l20.26,5.17v.28l-5.88,4.6Z"/>
      <path class="st2" d="M229.78,305.38l-4.43.94-25.94,21.13,17.86,4.98,5.36-.94.1.28-10.99,18.78-.21-.09-.89-6.29-13.96-12.87-.83,7.23,4.79,9.39-.05.28-16.3-2.44-.05-.28,3.96-6.95-2.86-44.52-5-8.73v-.38l25.73,3.29v.28l-6.04,5.92-2.45,28.36,19.27-26.02.37-8.73.16-.19,12.5,17.28-.1.28Z"/>
      <path class="st2" d="M232.08,325.48l-.99-3.19c3.38-2.54,5.62-5.17,6.04-9.11-2.19,0-3.54-2.16-3.54-5.26,0-3.29,1.93-5.92,4.63-5.92,3.28,0,5.16,3.29,5.16,7.89,0,7.61-5.16,12.87-11.3,15.59Z"/>
      <path class="st2" d="M276.34,312.98l-.16-.19.83-13.62c-1.46-2.25-3.65-3.85-6.2-3.85-5.26,0-7.97,5.17-7.97,12.87,0,14.09,19.37,10.05,19.37,24.51,0,8.08-5.73,13.9-13.85,13.9-3.7,0-7.03-1.78-9.43-4.98l-7.13-2.63-.05-.28,10.73-8.73.1.19-.42,7.51c1.09,1.5,2.92,2.54,4.43,2.54,2.34,0,3.91-2.44,3.91-6.39,0-13.9-22.65-6.48-22.65-27.33,0-10.24,6.98-19.63,20-19.63,5.31,0,10.31,2.91,14.22,7.89l7.92,1.6.1.38-13.75,16.25Z"/>
    </g>
  </g>
</svg>