<?xml version="1.0" encoding="UTF-8"?>
<svg id="_x2DC_àð_x5F_1" xmlns="http://www.w3.org/2000/svg" version="1.1" viewBox="0 0 288 288">
  <!-- Generator: Adobe Illustrator 30.2.1, SVG Export Plug-In . SVG Version: 2.1.1 Build 1)  -->
  <defs>
    <style>
      .st0 {
        fill: #eb6132;
      }

      .st1 {
        stroke-miterlimit: 10;
      }

      .st1, .st2 {
        fill: none;
        stroke: #134671;
        stroke-linecap: round;
        stroke-width: 4px;
      }

      .st2 {
        stroke-linejoin: round;
      }

      .st3 {
        fill: #134671;
      }
    </style>
  </defs>
  <g>
    <g>
      <path class="st3" d="M33.37,82.94,51.17,111.9c-6.16-4.89-17.65-14.76-18.54-23.1M36.71,84.01c-.96,2.89,2.8,6.11,4.75,6.67,7.55,2.01,15.43,1.33,23.14,1.09,11.27-.7,22.51-1.88,33.74-2.99,18.65-1.64,37.3-3.35,56.02-4.12,1.83.09,3.65-.17,5.48-.3,5.6.21,11.21-.13,16.82.11,18.35-.12,37.05,2.09,54.09,9.23,13.73,5.78,26.06,15.32,34.17,27.91,6.35,9.71,9.84,21.17,10.52,32.72.26,12.29-2,24.84-7.89,35.73-5.3,10.93-13.86,20.1-23.91,26.82-8.45,5.4-17.84,9.57-27.75,11.31-7.06,6.26-14.38,12.36-22.54,17.15-5.25,2.93-11,5.65-17.16,5.41-3.9-.37-7.92-2.04-10.28-5.29-2.67-3.64-3.3-8.81-1.15-12.84.88-1.94,2.39-3.48,4.07-4.73-4.61-.23-9.72-1.67-12.37-5.75-3.76-5.08-2.38-12.84,2.61-16.59,5.94-4.68,13.97-4.26,21.11-4.23,8.23.66,16.76,1.1,24.76-1.35,5.94-1.73,10.77-6.09,14.07-11.22,3.94-6.17,5.99-13.81,4.53-21.08-1.19-6.56-5.09-12.51-10.48-16.41-6.79-4.61-15.23-6.3-23.33-5.79-3.28,2.71-7.05,4.76-10.3,7.52-4.88,3.69-9.41,7.96-12.69,13.17-2.4,3.75-4.42,7.76-5.86,11.99-.94,2.18-4.54,1.34-4.38-1.05,2.99-8.1,7.25-15.94,13.75-21.76,3.78-3.8,8-7.14,12.45-10.12-4.32.21-8.65.05-12.97.29-6.03,3.12-11.54,7.14-16.6,11.66-5.72,5.23-10.16,11.8-13.14,18.94-.52,1.11-.5,2.69-1.79,3.23-1.45.79-3.46-.51-3.09-2.18,3.59-11.26,11.22-21.01,20.77-27.86,1.8-1.44,3.71-2.73,5.66-3.98-4.37.18-8.75.06-13.12.01-7.46,4.28-14.91,8.95-20.68,15.42-4.43,4.76-7.44,10.67-9.47,16.82-.24.91-1.13,1.64-2.08,1.64-1.47.23-2.74-1.53-2.13-2.87,2.08-6.24,5.03-12.28,9.3-17.32,4.96-5.7,11.03-10.35,17.55-14.12-4.11-.2-8.19-.72-12.25-1.36-1.33-.15-2.74-.21-3.98.37-7.79,3.21-15.61,7.09-21.44,13.34-3.7,3.68-6.47,8.29-8.05,13.27-.41,1.73-3.12,2-3.89.41-.67-1.37.15-2.84.58-4.16,4.76-11.91,15.6-20.36,27.21-25.07-10.61-2.16-21.01-5.3-31.07-9.28-6.42-2.69-12.86-5.4-18.88-8.92-4.37-2.26-8.46-5-12.71-7.47-12.93-8.79-16.9-21.03-21.4-21.74M79.95,94.86c-6.75.53-13.5,1.22-20.27,1.39-6.76.14-13.67.25-20.2-1.76,1.78,2.36,3.77,4.52,5.82,6.65,12.88,12.57,29.04,21.25,45.66,27.84,9.93,3.96,20.29,6.69,30.71,8.98,5.88,1.23,11.85,1.92,17.82,2.58,6.41.77,12.89.54,19.33.62,4.62-.02,9.23-.01,13.84-.12,1.03-1.02,2.11-1.98,3.19-2.95,5.47-4.96,9.35-11.67,10.74-18.94,1.74-7.56.9-15.54-1.61-22.83-1.19-2.55-2.28-5.16-3.7-7.6-33.9-.82-67.64,3.14-101.34,6.13ZM186.38,88.85c.99,2.06,2.06,4.1,2.74,6.3h.19c1.42,5.25,2.7,10.59,2.49,16.05.11,7.83-2.33,15.53-6.19,22.28-1.8,2.84-4.01,5.35-6.46,7.66,1.16-.06,2.33-.11,3.5-.13,3.8.09,7.61-.03,11.41.02,4.22.18,8.39,1.04,12.44,2.22,2.84-1.6,5.3-3.74,7.75-5.86,5.27-4.79,9.02-11.23,10.56-18.19,1.27-4.88.86-9.97.33-14.92l-.13-.06c-.71-3.13-1.8-6.16-3.06-9.11-11.49-3.76-23.54-5.56-35.58-6.25ZM227.22,96.78c1.3,3.01,2.19,6.18,2.56,9.43.64,7.06-.25,14.28-3.01,20.83-1.39,3.72-3.85,6.88-6.04,10.13-2.74,3.13-5.83,5.96-9.38,8.16,1.06.58,2.18,1.08,3.17,1.78,2.27,1.51,4.55,3.1,6.25,5.27,6.25.03,12.55-.97,18.31-3.49,8.04-3.37,15.07-9.51,18.86-17.43,1.23-2.59,2.11-5.32,3.27-7.94-3.68-4.9-7.71-9.58-12.38-13.58-6.4-5.58-13.91-9.71-21.61-13.18ZM260.34,136.28c-3.87,6.46-9.58,11.88-16.4,15.14v.22c-6.4,2.91-13.33,4.59-20.35,4.83.76,1.12,1.47,2.28,2.07,3.5,1.36,2.94,1.74,6.19,2.51,9.28,6.07,3.85,13.22,6,20.42,6.06,5.91-.22,11.8-1.64,17-4.49,1.5-.99,3.06-1.88,4.56-2.87,1.45-7.72,1.3-15.77-.39-23.45-1.22-5.51-3.49-10.7-5.71-15.86-1.1,2.61-2.05,5.31-3.71,7.65ZM228.12,174.21c-.08,1.41-.1,2.83-.36,4.22l.11.42c-.7,2.72-1.4,5.46-2.58,8.02.54.84,1.06,1.7,1.62,2.54l-.06.21c2.17,2.88,4.65,5.54,7.71,7.5,5.4,3.15,11.61,5.21,17.93,4.75.4,0,1.18,0,1.58,0,7.23-7.84,12.3-17.59,14.95-27.9-1.64.94-3.33,1.77-5.08,2.48-5.49,2.06-11.34,3.14-17.2,3.1-6.5-.53-12.72-2.65-18.62-5.33ZM211.84,201.86c.95.92,1.75,1.98,2.54,3.04,3.63,5.34,4.75,12.23,3.32,18.5,8.65-2.07,16.83-5.83,24.25-10.71.48-.4,1.28-.53,1.43-1.24,2.36-1.47,4.53-3.24,6.57-5.12-4.97-.27-9.95-1.5-14.31-3.93-5.31-2.44-9.78-6.59-12.93-11.47-2.72,4.4-6.47,8.2-10.88,10.92ZM196.57,205.84c-8.13.96-16.25-.7-24.39-.17-3.62.23-7.51.79-10.36,3.22-1.74,1.27-2.69,3.29-3.15,5.33.06,1.5-.08,3.12.76,4.46,1.44,2.97,4.81,4.34,7.91,4.76,7.45.77,14.67-1.85,21.75-3.79,1.38-.43,3.04,1.18,2.47,2.58-.43,1.2-1.86,1.44-2.79,2.12-4.39,1.22-8.75,2.68-12.93,4.52-2.02.98-4.14,1.97-5.56,3.77-1.79,1.96-3.05,4.89-2.09,7.52.37,2.05,1.97,3.65,3.67,4.73,3.91,2.11,8.61,1.62,12.6,0,10.16-4.48,19.08-11.38,27.17-18.9.49-.58,1.3-1,1.43-1.79.66-3.41,1.18-6.96.48-10.4-.85-3.88-3.23-7.17-5.72-10.18-3.67,1.1-7.45,1.85-11.26,2.23Z"/>
      <path class="st3" d="M107.7,101.24c4.18-2.52,10.25.58,10.87,5.36.6,2.48-.41,5.08-2.09,6.91-1.89,1.18-4.14,2.16-6.42,1.68-1.71-.22-3.14-1.22-4.46-2.25-2.95-3.5-2.02-9.54,2.1-11.71Z"/>
    </g>
    <g>
      <path class="st0" d="M126.41,95.68c16.66-1.41,33.4-1.49,50.11-1.27,2.82.1,5.85.12,8.27,1.78,2.5,7.29,3.35,15.28,1.61,22.83-1.39,7.27-5.27,13.98-10.74,18.94-1.09.96-2.17,1.92-3.19,2.95-4.61.11-9.23.1-13.84.12-6.45-.08-12.92.14-19.33-.62-5.96-.66-11.94-1.35-17.82-2.58-10.42-2.3-20.78-5.02-30.71-8.98-16.61-6.59-32.78-15.27-45.66-27.84.97-.18,1.95-.33,2.95-.27,4.79.31,9.6.37,14.4.13,10.2-.97,20.43-1.71,30.65-2.48,11.1-1,22.2-1.98,33.31-2.71ZM107.7,101.24c-4.12,2.17-5.05,8.21-2.1,11.71l-.75-.4c-.06,1.8.37,3.69,1.69,5,1.11,1.28,2.95,1.29,4.5,1.19,3.04-.11,5.39-2.79,6.14-5.58l-.7.35c1.68-1.83,2.7-4.43,2.09-6.91-.62-4.78-6.69-7.88-10.87-5.36Z"/>
      <path class="st0" d="M189.12,95.03c3.06.17,6.08.72,9.09,1.29,9.1,1.66,18.16,3.94,26.61,7.76l.13.06c.53,4.95.94,10.04-.33,14.92-1.54,6.96-5.29,13.4-10.56,18.19-2.45,2.12-4.91,4.26-7.75,5.86-4.05-1.18-8.22-2.04-12.44-2.22-3.8-.05-7.61.07-11.41-.02.46-2.7,1.88-5.05,2.96-7.52,3.86-6.75,6.3-14.45,6.19-22.28.21-5.46-1.08-10.81-2.49-16.04Z"/>
      <path class="st0" d="M229.59,106.08c8.53,4.59,16.49,10.46,22.68,17.97,1.98,2.31,3.54,4.94,5.47,7.29-3.79,7.91-10.82,14.06-18.86,17.43-5.75,2.52-12.06,3.52-18.31,3.49-1.7-2.17-3.98-3.76-6.25-5.27.27-4.2,4.8-6.23,6.21-9.94,2.19-3.26,4.65-6.41,6.04-10.13,2.76-6.55,3.65-13.78,3.01-20.83Z"/>
      <path class="st0" d="M243.75,151.28c6.81-3.25,12.52-8.68,16.4-15.14,3.12,6.04,4.68,12.8,5.51,19.51.66,5-.09,10.02-.26,15.02-5.2,2.86-11.09,4.27-17,4.49-7.2-.06-14.35-2.22-20.42-6.06-.77-3.09-1.15-6.34-2.51-9.28,6.52-1.09,13.3-3.07,18.24-7.67,0-.17.02-.5.03-.66v-.22Z"/>
      <path class="st0" d="M246.55,179.41c5.86.04,11.72-1.04,17.2-3.1-.23,4.05-1.97,7.79-3.55,11.47-2.07,4.95-5.19,9.35-7.9,13.96-6.32.46-12.53-1.6-17.93-4.75-3.06-1.95-5.55-4.62-7.71-7.5l.06-.21c1.03-3.39,2.31-7.07.96-10.56l-.11-.42c3.02.71,5.82,2.2,8.91,2.69,2.84.49,5.8.85,8.63.2.86-.15,1.01-1.17,1.44-1.78Z"/>
      <path class="st0" d="M218.32,200.98c1.6-1.64,2.8-3.65,4.68-5.02.84,1.41,1.73,2.83,2.97,3.93,3.6,3.17,7.81,5.81,12.54,6.84,2.34.52,4.8-.04,7.11.69-.74,1.34-1.78,2.51-2.43,3.91-.14.71-.95.84-1.43,1.24-7.42,4.88-15.6,8.64-24.25,10.71,1.43-6.27.31-13.16-3.32-18.5,1.38-1.26,2.84-2.44,4.13-3.8Z"/>
      <path class="st0" d="M204.58,208.01c1.02-.16,2.47-1.02,3.15.21,1.67,2.3,2.65,4.99,3.87,7.53.26.5.47,1.14,1.07,1.33.71-.95.53-2.3.69-3.42.7,3.44.18,6.99-.48,10.4-.13.8-.94,1.22-1.43,1.79-8.1,7.52-17.02,14.42-27.17,18.9-3.99,1.63-8.69,2.12-12.6,0-1.71-1.08-3.3-2.68-3.67-4.73-.02-.84-.04-1.68-.07-2.5,1.03-1.98,2.79-3.34,4.63-4.51,2.31-1.48,3.74-4.08,6.33-5.16,3.4-1.4,7.02-2.19,10.42-3.58-.18-.01-.54-.04-.72-.05.93-.68,2.36-.91,2.79-2.12.57-1.4-1.09-3.01-2.47-2.58-7.08,1.94-14.29,4.56-21.75,3.79-3.1-.43-6.47-1.79-7.91-4.76-.84-1.33-.69-2.95-.76-4.46,3.8-3.02,8.67-4.76,13.56-4.49,10.85.4,21.95,1.4,32.55-1.6Z"/>
    </g>
  </g>
  <path class="st1" d="M156.71,51.42c-16.82-54.92-43.09-26.1-43.09-26.1,0,0-6.74,7.88-27.33,1.14s-25.49,12.53-25.49,12.53c0,0,.66,28.38-14.98,37.4-12.09,6.97-10.69,6.83-10.69,6.83,0,0-2.15,5.26,1.05,10.12"/>
  <path class="st2" d="M175.12,44.53c47.82,11.69-.13,19.91-.13,19.91,0,0-73.45,12.09-134.69,5.3s-20.32,36.26-20.32,36.26c0,0,6.48,7.97,33.28,4.82"/>
</svg>